<svg xmlns="http://www.w3.org/2000/svg" version="1.1" xmlns:xlink="http://www.w3.org/1999/xlink" xmlns:svgjs="http://svgjs.com/svgjs" width="2515" height="300" transform="matrix(1,0,0,1,0,0)">
  <text font-family="DM Sans" font-size="260" text-anchor="left" x="310" charspacing="20px">
    <tspan dy="239.20000000000002" x="310">GamesLauncher</tspan>
  </text>
  <path transform="matrix(0.7071067811865476,0.7071067811865475,-0.7071067811865475,0.7071067811865476,150,8.58)" d="M25,100A24.999999999999996,24.999999999999996,-90,0,0,0,125L0,125A24.999999999999996,24.999999999999996,-90,0,0,25,150L50,150L50,125A24.999999999999996,24.999999999999996,-90,0,0,25,100ZM50,150L50,175A24.999999999999996,24.999999999999996,-90,0,0,75,200L75,200A25.000000000000007,25.000000000000007,270,0,0,100,175L100,175A24.999999999999996,24.999999999999996,-90,0,0,75,150ZM150,100L150,125A24.999999999999996,24.999999999999996,-90,0,0,175,150L175,150A25.000000000000007,25.000000000000007,270,0,0,200,125L200,100ZM150,50L150,100L200,100L200,50ZM150,0L150,50L200,50L200,25A24.999999999999996,24.999999999999996,-90,0,0,175,0ZM100,0L100,50L150,50L150,0ZM50,0L50,50L100,50L100,0ZM25,0A24.999999999999996,24.999999999999996,-90,0,0,0,25L0,25A24.999999999999996,24.999999999999996,-90,0,0,25,50L50,50L50,0Z"/>
</svg>